<?xml version="1.0" ?><svg data-name="Layer 1" id="Layer_1" viewBox="0 0 512 512" xmlns="http://www.w3.org/2000/svg"><defs><style>.cls-1{fill:#ffd34e;}.cls-2{fill:#4b525f;}.cls-3{fill:#304269;}.cls-4{fill:#91bed4;}.cls-5{fill:#ea6045;}</style></defs><title/><rect class="cls-1" height="512" rx="256" ry="256" width="512"/><path class="cls-2" d="M181.76,114.66V164h21.42V125.7a4.75,4.75,0,0,1,4.75-4.75h96.14a4.75,4.75,0,0,1,4.75,4.75V164H328.3V114.66a14.59,14.59,0,0,0-14.59-14.59H196.36A14.59,14.59,0,0,0,181.76,114.66Z"/><rect class="cls-3" height="260.71" rx="16.88" ry="16.88" width="332.76" x="89.62" y="151.22"/><path class="cls-4" d="M215.73,250a65.3,65.3,0,0,0,80.55,0L416.8,155c-3-2.71-6.95-5-11.3-5h-299c-4.35,0-8.31,2.27-11.3,5Z"/><rect class="cls-5" height="26.59" rx="10.7" ry="10.7" transform="translate(244.77 -111.74) rotate(45)" width="26.59" x="243.97" y="226.3"/></svg>