<?xml version="1.0" ?><svg data-name="Layer 1" id="Layer_1" viewBox="0 0 512 512" xmlns="http://www.w3.org/2000/svg"><defs><style>.cls-1{fill:#91bed4;}.cls-2{fill:#2674a9;}.cls-3{fill:#df5a49;}.cls-4{fill:#3f5666;}.cls-5{fill:#f3b562;}.cls-6{fill:#2f3440;}.cls-7{fill:#fff9f9;}</style></defs><title/><rect class="cls-1" height="512" rx="256" ry="256" transform="translate(-7.18 7.39) rotate(-1.63)" width="512"/><rect class="cls-2" height="58" rx="12.45" ry="12.45" width="88.52" x="211.74" y="104.24"/><rect class="cls-3" height="249.32" rx="56.06" ry="56.06" width="332.35" x="89.82" y="139.14"/><path class="cls-4" d="M419.86,177.78a54.49,54.49,0,0,0-52-38.64H144.1a54.49,54.49,0,0,0-52,38.64Z"/><rect class="cls-5" height="85.36" width="332.35" x="89.82" y="221.12"/><path class="cls-4" d="M91.35,348.35a54.48,54.48,0,0,0,52.75,41.58H367.9a54.48,54.48,0,0,0,52.75-41.58Z"/><circle class="cls-2" cx="256" cy="261.43" r="71.45"/><circle class="cls-6" cx="256" cy="261.43" r="59.81"/><circle class="cls-7" cx="256" cy="259.96" r="21.8"/><rect class="cls-7" height="37.09" rx="8.41" ry="8.41" width="63.2" x="224.4" y="115.71"/></svg>