<?xml version="1.0" ?><svg data-name="Layer 1" id="Layer_1" viewBox="0 0 512 512" xmlns="http://www.w3.org/2000/svg"><defs><style>.cls-1{fill:#8cbeb2;}.cls-2{fill:#b64926;}.cls-3{fill:#8e2800;}.cls-4{fill:#efecca;}.cls-5{fill:#e6e2af;}.cls-6{fill:#4b525f;}</style></defs><title/><rect class="cls-1" height="512" rx="256" ry="256" width="512"/><rect class="cls-2" height="349.15" rx="78.84" ry="78.84" width="348.92" x="81.54" y="81.42"/><circle class="cls-3" cx="256" cy="256" r="136.52"/><circle class="cls-4" cx="256" cy="256" r="121.34"/><path class="cls-5" d="M136,237.77a121.34,121.34,0,1,0,240,.13,194.15,194.15,0,0,0-240-.13Z"/><path class="cls-6" d="M284.37,250.4H363c2.57,0,4.66,2.45,4.66,5.47h0c0,3-2.09,5.47-4.66,5.47H284.37a2.58,2.58,0,0,1-2.35-2.76v-5.41A2.58,2.58,0,0,1,284.37,250.4Z"/><path class="cls-6" d="M247.06,224.68V147.9A8.94,8.94,0,0,1,256,139h0a8.94,8.94,0,0,1,8.94,8.94v76.78a3.32,3.32,0,0,1-3.32,3.32H250.38A3.32,3.32,0,0,1,247.06,224.68Z"/><circle class="cls-6" cx="255.98" cy="255.87" r="16.14" transform="translate(-105.95 255.94) rotate(-45)"/></svg>