<?xml version="1.0" ?><svg data-name="Layer 1" id="Layer_1" viewBox="0 0 512 512" xmlns="http://www.w3.org/2000/svg"><defs><style>.cls-1{fill:#5c4b51;}.cls-2{fill:#468966;}.cls-3{fill:#fff9f9;}.cls-4{fill:#046380;}.cls-5{fill:#4b525f;}.cls-6{fill:#ffd34e;}.cls-7{fill:#db9e36;}.cls-8{fill:#bd4932;}</style></defs><title/><rect class="cls-1" height="512" rx="256" ry="256" width="512"/><circle class="cls-2" cx="256" cy="256" r="176.78"/><circle class="cls-3" cx="256" cy="256" r="123.67"/><circle class="cls-4" cx="256" cy="256" r="83.54"/><circle class="cls-3" cx="256" cy="256" r="35.16"/><rect class="cls-5" height="85.87" rx="4.81" ry="4.81" transform="translate(691.76 251.88) rotate(131.26)" width="9.62" x="284.02" y="239.69"/><path class="cls-6" d="M324.3,280.05H363.9a0,0,0,0,1,0,0v82.31a19.8,19.8,0,0,1-19.8,19.8h0a19.8,19.8,0,0,1-19.8-19.8V280.05a0,0,0,0,1,0,0Z" transform="translate(819.92 290.79) rotate(131.26)"/><polygon class="cls-7" points="395.54 349.89 412.7 391.29 369.42 379.66 395.54 349.89"/><path class="cls-8" d="M382.39,383.15s6.54,60.61,30.31,8.14Z"/><path class="cls-8" d="M400.68,362.36s60.95-1.23,11.93,29Z"/><path class="cls-7" d="M333.66,295.61a19.8,19.8,0,0,0-27.95,1.83h0a19.8,19.8,0,0,0,1.83,27.95l.85.74,26.12-29.77Z"/></svg>