<?xml version="1.0" ?><svg data-name="Layer 1" id="Layer_1" viewBox="0 0 512 512" xmlns="http://www.w3.org/2000/svg"><defs><style>.cls-1{fill:#ffd34e;}.cls-2{fill:#fff;}.cls-3{fill:#b64926;}.cls-4{fill:#2f3440;}.cls-5{fill:#8e2800;}.cls-6{fill:#a7a37e;}.cls-7{fill:#3f5666;}</style></defs><title/><rect class="cls-1" height="512" rx="256" ry="256" width="512"/><path class="cls-2" d="M128.92,135.06H444.24a0,0,0,0,1,0,0V360.74a16.2,16.2,0,0,1-16.2,16.2H145.12a16.2,16.2,0,0,1-16.2-16.2V135.06A0,0,0,0,1,128.92,135.06Z" transform="translate(30.58 542.58) rotate(-90)"/><path class="cls-3" d="M8,229.57H290.44A16.43,16.43,0,0,1,306.88,246v36.42a0,0,0,0,1,0,0H-8.44a0,0,0,0,1,0,0V246A16.43,16.43,0,0,1,8,229.57Z" transform="translate(-106.78 405.22) rotate(-90)"/><circle class="cls-4" cx="143.56" cy="378.93" r="15.87"/><circle class="cls-4" cx="143.56" cy="329.17" r="15.87"/><circle class="cls-4" cx="143.56" cy="279.29" r="15.87"/><circle class="cls-4" cx="143.56" cy="229.53" r="15.87"/><circle class="cls-4" cx="143.56" cy="179.86" r="15.87"/><circle class="cls-4" cx="143.56" cy="130.1" r="15.87"/><rect class="cls-5" height="12.01" transform="translate(-86.36 425.64) rotate(-90)" width="315.32" x="11.98" y="249.99"/><rect class="cls-6" height="50.6" rx="10.15" ry="10.15" transform="translate(-249.11 508.67) rotate(-90)" width="22.61" x="118.48" y="353.59"/><rect class="cls-6" height="22.61" rx="11.3" ry="11.3" width="50.6" x="104.48" y="317.81"/><rect class="cls-6" height="22.61" rx="11.3" ry="11.3" width="50.6" x="104.48" y="268.06"/><rect class="cls-6" height="22.61" rx="11.3" ry="11.3" width="50.6" x="104.48" y="218.23"/><rect class="cls-6" height="22.61" rx="11.3" ry="11.3" width="50.6" x="104.48" y="168.57"/><rect class="cls-6" height="50.6" rx="10.15" ry="10.15" transform="translate(-0.33 259.89) rotate(-90)" width="22.61" x="118.48" y="104.81"/><path class="cls-7" d="M256.35,226.48,240.2,275.38H219.44l52.83-155.49H296.5l53.06,155.49H328.1l-16.61-48.91Zm51-15.69L292.11,166c-3.46-10.15-5.77-19.38-8.08-28.38h-.46c-2.31,9.23-4.84,18.69-7.84,28.15l-15.23,45Z"/><rect class="cls-7" height="10.36" width="173" x="198" y="299.76"/><rect class="cls-7" height="10.36" width="173" x="198" y="323.41"/><rect class="cls-7" height="10.36" width="173" x="198" y="347.06"/><rect class="cls-7" height="10.36" width="173" x="198" y="370.71"/></svg>